<svg width="400" height="400" xmlns="http://www.w3.org/2000/svg" preserveAspectRatio="none">
  <g>
    <title>background</title>
    <rect fill="none" id="canvas_background" height="402" width="402" y="-1" x="-1"/>
    <g display="none" overflow="visible" y="0" x="0" height="100%" width="100%" id="canvasGrid">
      <rect fill="url(#gridpattern)" stroke-width="0" y="0" x="0" height="100%" width="100%"/>
    </g>
  </g>
  <g>
    <title>Layer 1</title>
    <line stroke="#000" stroke-linecap="undefined" stroke-linejoin="undefined" id="svg_3" y2="166.999973" x2="200" y1="0" x1="200" stroke-width="2.5" fill="none"/>
    <line stroke="#000" stroke-linecap="undefined" stroke-linejoin="undefined" id="svg_5" y2="200" x2="400" y1="200" x1="237.66671" fill-opacity="null" stroke-opacity="null" stroke-width="2" fill="none"/>
    <line stroke="#000" stroke-linecap="undefined" stroke-linejoin="undefined" id="svg_4" y2="200" x2="162.999955" y1="200" x1="0" fill-opacity="null" stroke-opacity="null" stroke-width="2" fill="none"/>
    <line stroke="#000" stroke-linecap="undefined" stroke-linejoin="undefined" id="svg_1" y2="400" x2="200" y1="233.000027" x1="200" stroke-width="2" fill="none"/>
    <path stroke="#009688" id="svg_6" d="m163.463188,200.081882l15.571486,-31.142942l41.52396,0l15.571481,31.142942l-15.571481,31.142942l-41.52396,0l-15.571486,-31.142942z" stroke-width="6" fill="none"/>
    <path
      transform="rotate(90 214.4233856201172,200.3414001464844) "
      stroke="#000000"
      id="svg_13"
      d="m214.423375,188.479002c-3.865884,0 -7.000031,3.109476 -7.000031,6.944928c0,3.836378 7.000031,16.779871 7.000031,16.779871s7.000031,-12.943493 7.000031,-16.779871c0,-3.835452 -3.133214,-6.944928 -7.000031,-6.944928zm0,10.263677c-1.847075,0 -3.345082,-1.485288 -3.345082,-3.318749s1.498007,-3.318749 3.345082,-3.318749s3.345082,1.486214 3.345082,3.318749s-1.498007,3.318749 -3.345082,3.318749z"
      fill="#009688"/>
    <path
      transform="rotate(-90 184.92376708984378,200.34140014648438) "
      stroke="#000000"
      id="svg_21"
      d="m184.92378,188.479003c-3.865884,0 -7.000031,3.109476 -7.000031,6.944928c0,3.836377 7.000031,16.77987 7.000031,16.77987s7.000032,-12.943493 7.000032,-16.77987c0,-3.835452 -3.133214,-6.944928 -7.000032,-6.944928zm0,10.263677c-1.847075,0 -3.345081,-1.485289 -3.345081,-3.318749s1.498006,-3.31875 3.345081,-3.31875s3.345082,1.486215 3.345082,3.31875s-1.498007,3.318749 -3.345082,3.318749z"
      fill="#009688"/>
    <path
      transform="rotate(-180 199.92356872558594,214.841064453125) "
      stroke="#000000"
      id="svg_22"
      d="m199.923574,202.978803c-3.865884,0 -7.000031,3.109476 -7.000031,6.944928c0,3.836378 7.000031,16.779871 7.000031,16.779871s7.000031,-12.943493 7.000031,-16.779871c0,-3.835452 -3.133214,-6.944928 -7.000031,-6.944928zm0,10.263677c-1.847075,0 -3.345082,-1.485288 -3.345082,-3.318749s1.498007,-3.318749 3.345082,-3.318749s3.345082,1.486214 3.345082,3.318749s-1.498007,3.318749 -3.345082,3.318749z"
      fill="#009688"/>
  </g>
</svg>
